<svg xmlns="http://www.w3.org/2000/svg" viewBox="0 0 445.32 100.86"><defs><style>.cls-1{fill:#00d2ff;}.cls-2,.cls-3{fill:#fff;}.cls-2{stroke:#fff;stroke-miterlimit:10;stroke-width:4px;}.cls-3{font-size:60px;font-family:OCRAStd, OCR A Std;letter-spacing:-0.07em;}.cls-4,.cls-5,.cls-6{font-size:54px;}.cls-4{letter-spacing:-0.08em;}.cls-5{letter-spacing:0.03em;}.cls-6{letter-spacing:-0.07em;}</style></defs><title>ml-blue</title><g id="Layer_2" data-name="Layer 2"><g id="Layer_1-2" data-name="Layer 1"><rect class="cls-1" width="445.32" height="100.86"/><path class="cls-2" d="M89.35,64A36.74,36.74,0,0,0,72.73,24.24a1.42,1.42,0,0,0-1.49,2.42A34,34,0,0,1,86.67,63a10,10,0,1,0,2.68,1ZM84.64,79.83a7.1,7.1,0,1,1,7.1-7.1A7.11,7.11,0,0,1,84.64,79.83Z"/><path class="cls-2" d="M66.43,87.18a33.75,33.75,0,0,1-13,2.58A34.13,34.13,0,0,1,29.25,79.7h0A10,10,0,1,0,27,81.42h0a36.91,36.91,0,0,0,40.54,8.39,1.42,1.42,0,0,0-1.08-2.63ZM15.07,72.73a7.1,7.1,0,1,1,7.1,7.1A7.11,7.11,0,0,1,15.07,72.73Z"/><path class="cls-2" d="M17.91,54.57H18a1.43,1.43,0,0,0,1.42-1.32A33.88,33.88,0,0,1,43.88,23a9.92,9.92,0,1,0-.41-2.84A36.73,36.73,0,0,0,16.6,53.06,1.41,1.41,0,0,0,17.91,54.57ZM53.41,13.1a7.1,7.1,0,1,1-7.1,7.1A7.1,7.1,0,0,1,53.41,13.1Z"/><text class="cls-3" transform="translate(103.44 74.73)">M<tspan class="cls-4" x="38.7" y="0">ARKO</tspan><tspan class="cls-5" x="178.02" y="0">V</tspan><tspan x="218.25" y="0">L</tspan><tspan class="cls-6" x="256.94" y="0">AB</tspan></text></g></g></svg>