<svg id="ml-icon-main" xmlns="http://www.w3.org/2000/svg" viewBox="0 0 250 250"><defs><style>.cls-1{stroke:#000;stroke-miterlimit:10;stroke-width:11.14px;}</style></defs><title>ml-icon-main</title><path class="cls-1" d="M227.06,160.12A104,104,0,0,0,180,47.64a4,4,0,1,0-4.52,6.66l.29.18a96.08,96.08,0,0,1,43.67,102.86,28.16,28.16,0,1,0,7.6,2.78ZM213.72,205a20.13,20.13,0,1,1,20.12-20.13A20.12,20.12,0,0,1,213.72,205Z"/><path class="cls-1" d="M162.17,225.8A96.42,96.42,0,0,1,56.93,204.6h0a28.07,28.07,0,1,0-6.44,4.9h0a104.4,104.4,0,0,0,114.75,23.72,4,4,0,0,0-3.07-7.42ZM16.82,184.88A20.12,20.12,0,1,1,36.94,205a20.12,20.12,0,0,1-20.12-20.12Z"/><path class="cls-1" d="M24.85,133.5h.29a4,4,0,0,0,4-3.74A96,96,0,0,1,98.34,44.12a28.1,28.1,0,1,0-1.15-8,103.94,103.94,0,0,0-76.06,93.1A4,4,0,0,0,24.85,133.5ZM125.31,16.1a20.13,20.13,0,1,1-20.12,20.13A20.13,20.13,0,0,1,125.31,16.1Z"/></svg>