<svg xmlns="http://www.w3.org/2000/svg" viewBox="0 0 262.95 262.95"><defs><style>.cls-1{fill:#00d2ff;stroke:#00d2ff;stroke-miterlimit:10;stroke-width:12px;}</style></defs><title>ml-symbol</title><g id="Layer_2" data-name="Layer 2"><g id="Layer_1-2" data-name="Layer 1"><path class="cls-1" d="M241,169.72A112,112,0,0,0,190.37,48.61,4.32,4.32,0,1,0,185.83,56a103.42,103.42,0,0,1,47,110.76,30.33,30.33,0,1,0,8.18,3ZM226.66,218a21.64,21.64,0,1,1,21.64-21.63A21.66,21.66,0,0,1,226.66,218Z"/><path class="cls-1" d="M171.16,240.43A103.77,103.77,0,0,1,57.85,217.61h0a30.25,30.25,0,1,0-6.93,5.27h0a112.38,112.38,0,0,0,123.55,25.54,4.32,4.32,0,0,0-3.31-8ZM14.65,196.38A21.64,21.64,0,1,1,36.29,218,21.67,21.67,0,0,1,14.65,196.38Z"/><path class="cls-1" d="M23.31,141.05h.3a4.33,4.33,0,0,0,4.32-4,103.31,103.31,0,0,1,74.5-92.22,30.25,30.25,0,1,0-1.24-8.64A111.93,111.93,0,0,0,19.3,136.43,4.32,4.32,0,0,0,23.31,141.05ZM131.48,14.65a21.64,21.64,0,1,1-21.64,21.64A21.67,21.67,0,0,1,131.48,14.65Z"/></g></g></svg>