<svg xmlns="http://www.w3.org/2000/svg" viewBox="0 0 419.81 86.34"><defs><style>.cls-1,.cls-3{fill:#00d2ff;}.cls-1,.cls-2{stroke:#00d2ff;stroke-miterlimit:10;stroke-width:4px;}.cls-2{fill:#aaa;}.cls-3{font-size:60px;font-family:OCRAStd, OCR A Std;letter-spacing:-0.07em;}.cls-4,.cls-5,.cls-6{font-size:54px;}.cls-4{letter-spacing:-0.08em;}.cls-5{letter-spacing:0.03em;}.cls-6{letter-spacing:-0.07em;}</style></defs><title>ml-white</title><g id="Layer_2" data-name="Layer 2"><g id="Layer_1-2" data-name="Layer 1"><path class="cls-1" d="M79.12,55.72A36.81,36.81,0,0,0,62.5,16,1.42,1.42,0,1,0,61,18.4,33.89,33.89,0,0,1,76.43,54.74a9.94,9.94,0,1,0,2.69,1ZM74.41,71.57a7.1,7.1,0,1,1,7.09-7.1A7.11,7.11,0,0,1,74.41,71.57Z"/><path class="cls-2" d="M56.19,78.92a33.75,33.75,0,0,1-13,2.58A34.16,34.16,0,0,1,19,71.44h0a10,10,0,1,0-2.27,1.72h0a36.91,36.91,0,0,0,40.54,8.39,1.42,1.42,0,1,0-1.09-2.63ZM4.84,64.47a7.1,7.1,0,1,1,7.1,7.1A7.1,7.1,0,0,1,4.84,64.47Z"/><path class="cls-1" d="M7.68,46.31h.1A1.43,1.43,0,0,0,9.2,45,33.89,33.89,0,0,1,33.64,14.74a9.95,9.95,0,1,0-.4-2.84A36.75,36.75,0,0,0,6.36,44.8,1.42,1.42,0,0,0,7.68,46.31ZM43.17,4.84a7.1,7.1,0,1,1-7.1,7.1A7.1,7.1,0,0,1,43.17,4.84Z"/><text class="cls-3" transform="translate(93.21 66.47)">M<tspan class="cls-4" x="38.7" y="0">ARKO</tspan><tspan class="cls-5" x="178.02" y="0">V</tspan><tspan x="218.25" y="0">L</tspan><tspan class="cls-6" x="256.94" y="0">AB</tspan></text></g></g></svg>